<?xml version="1.0" encoding="utf-8"?>
<!-- Generator: Adobe Illustrator 24.0.2, SVG Export Plug-In . SVG Version: 6.00 Build 0)  -->
<svg version="1.1" id="Layer_1" xmlns="http://www.w3.org/2000/svg" xmlns:xlink="http://www.w3.org/1999/xlink" x="0px" y="0px"
	 viewBox="0 0 39.4 39.4" style="enable-background:new 0 0 39.4 39.4;" xml:space="preserve">
<style type="text/css">
	.st0{fill:none;stroke:#1E1E1E;stroke-width:6;stroke-linecap:round;stroke-linejoin:round;}
	.st1{fill:#FFFFFF;}
	.st2{fill:none;stroke:#FFFFFF;stroke-width:5.2;stroke-linecap:round;stroke-linejoin:round;}
	.st3{fill:none;stroke:#2A2A2A;stroke-width:2;stroke-linecap:round;stroke-linejoin:round;}
</style>
<path class="st0" d="M23.2,18.1l2.3-12.2c0.8-4,5.4-2.8,4.9,0.4l-2.2,12.3 M23.2,18.1c-1.2,0.1-2.3,0.4-3.1,0.8
	c-0.6,0.3-1.1,0.7-1.4,1.2 M23.2,18.1V16c0.2-3.8-5.3-3.7-5,0 M23.2,18.1c1.6-0.2,3.5-0.1,5.1,0.5 M18.2,16
	c-0.3-3.9-5.9-2.9-5.2,0.5 M18.2,16l0.4,4.1 M13,16.5c0,0-1.4-7-1.6-7.6c-0.9-3-4.9-2.2-4.4,1l2.5,16.5c1.2,5.5,4.6,9.6,10.8,9.6
	c7.5,0,10.7-4.1,11.6-11.4c0.4-3.3-1.4-5.2-3.7-6 M13,16.5l0.9,4.9c0.4,2.3,3.2,2.8,4.3,1.3 M27.8,24.6H25 M21.7,31.1
	c0.1-2.2,1-6.5,3.3-6.5 M25,24.6h-2.9c-2,0-3.4-0.7-3.9-1.9 M18.6,20.1c-0.6,0.8-0.7,1.8-0.4,2.6"/>
<path class="st1" d="M9.5,26.4c1.2,5.5,4.6,9.6,10.8,9.6c7.5,0,10.7-4.1,11.6-11.4c0.4-3.3-1.4-5.2-3.7-6c-1.6-0.6-3.4-0.7-5.1-0.5
	V16c0.2-3.8-5.3-3.7-5,0c-0.3-3.9-5.9-2.9-5.2,0.5c-0.1-0.3-1.4-7-1.6-7.6c-0.9-3-4.9-2.2-4.4,1L9.5,26.4z"/>
<path class="st2" d="M23.2,18.1l2.3-12.2c0.8-4,5.4-2.8,4.9,0.4l-2.2,12.3 M23.2,18.1V16c0.2-3.8-5.3-3.7-5,0
	c-0.3-3.9-5.9-2.9-5.2,0.5 M23.2,18.1c1.6-0.2,3.5-0.1,5.1,0.5 M28.3,18.6c2.3,0.8,4.1,2.7,3.7,6C31.1,31.9,27.8,36,20.3,36
	c-6.3,0-9.7-4.1-10.8-9.6L7,9.9c-0.5-3.1,3.6-4,4.4-1c0.2,0.6,1.5,7.3,1.6,7.6 M13,16.5C13,16.5,13,16.5,13,16.5
	C13,16.5,13,16.5,13,16.5z"/>
<path class="st3" d="M23.2,18.1l2.3-12.2c0.8-4,5.4-2.8,4.9,0.4l-2.2,12.3 M23.2,18.1c-1.2,0.1-2.3,0.4-3.1,0.8
	c-0.6,0.3-1.1,0.7-1.4,1.2 M23.2,18.1V16c0.2-3.8-5.3-3.7-5,0 M23.2,18.1c1.6-0.2,3.5-0.1,5.1,0.5 M18.2,16
	c-0.3-3.9-5.9-2.9-5.2,0.5 M18.2,16l0.4,4.1 M13,16.5c0,0-1.4-7-1.6-7.6c-0.9-3-4.9-2.2-4.4,1l2.5,16.5c1.2,5.5,4.6,9.6,10.8,9.6
	c7.5,0,10.7-4.1,11.6-11.4c0.4-3.3-1.4-5.2-3.7-6 M13,16.5l0.9,4.9c0.4,2.3,3.2,2.8,4.3,1.3 M27.8,24.6H25 M21.7,31.1
	c0.1-2.2,1-6.5,3.3-6.5 M25,24.6h-2.9c-2,0-3.4-0.7-3.9-1.9 M18.6,20.1c-0.6,0.8-0.7,1.8-0.4,2.6"/>
</svg>
