<svg width="242" height="39" viewBox="0 0 242 39" fill="none" xmlns="http://www.w3.org/2000/svg">
<path d="M233.379 30.9809C229.202 30.9809 226.536 29.4404 225.439 27.0409C225.025 26.1226 224.847 25.0561 224.817 23.8711H229.646C229.646 24.6117 229.735 25.2635 229.972 25.7967C230.505 26.952 231.69 27.5741 233.527 27.5741C235.245 27.5741 236.489 27.0113 236.934 26.0337C237.111 25.619 237.2 25.2635 237.2 24.8784C237.2 24.434 237.111 24.1081 236.963 23.7823C236.252 22.2122 233.705 21.8271 231.157 21.0865C228.728 20.4348 226.624 19.4572 225.765 17.5317C225.499 16.8799 225.291 16.1393 225.291 15.1914C225.291 14.273 225.499 13.4732 225.854 12.703C226.861 10.3923 229.616 9 233.26 9C236.815 9 239.422 10.3034 240.518 12.7326C240.903 13.6509 241.081 14.5989 241.081 15.7839H236.548C236.548 15.0433 236.46 14.4508 236.223 13.9176C235.719 12.8511 234.682 12.2882 233.082 12.2882C231.572 12.2882 230.416 12.8511 230.002 13.7694C229.853 14.0953 229.824 14.3619 229.824 14.7174C229.824 15.0729 229.853 15.3395 229.972 15.6654C230.594 16.9984 232.934 17.3835 235.452 18.0649C238.178 18.8055 240.548 19.6942 241.525 21.8271C241.821 22.5381 241.999 23.3675 241.999 24.3748C241.999 25.4116 241.792 26.3003 241.436 27.1001C240.311 29.6182 237.348 30.9809 233.379 30.9809Z" fill="#2A2A2A"/>
<path d="M204.702 30.4476V9.5332H212.967C217.559 9.5332 220.669 11.3699 222.091 14.5989C222.772 16.0801 223.069 17.8279 223.069 19.9904C223.069 22.1529 222.772 23.9007 222.091 25.3819C220.639 28.6109 217.559 30.4476 212.967 30.4476H204.702ZM209.086 26.6854H212.285C215.218 26.6854 216.936 25.6486 217.766 23.7526C218.21 22.775 218.418 21.6197 218.418 19.9904C218.418 18.3611 218.21 17.2058 217.766 16.2282C216.936 14.3026 215.189 13.2954 212.285 13.2954H209.086V26.6854Z" fill="#2A2A2A"/>
<path d="M183.44 30.4476V9.5332H187.914L197.156 23.9007V9.5332H201.422V30.4476H196.919L187.706 16.1097V30.4476H183.44Z" fill="#2A2A2A"/>
<path d="M177.184 30.4476L175.733 26.0337H166.964L165.542 30.4476H160.98L168.09 9.5332H174.636L181.746 30.4476H177.184ZM168.09 22.5973H174.607L171.378 12.6733H171.319L168.09 22.5973Z" fill="#2A2A2A"/>
<path d="M141.984 30.4476V9.5332H146.368V18.0056H155.018V9.5332H159.402V30.4476H155.018V21.7382H146.368V30.4476H141.984Z" fill="#2A2A2A"/>
<path d="M96.6311 30.4476V9.5332H101.015V26.6558H107.118V30.4476H96.6311Z" fill="#2A2A2A"/>
<path d="M90.3748 30.4476L88.9232 26.0337H80.1546L78.7327 30.4476H74.1706L81.2803 9.5332H87.8272L94.9369 30.4476H90.3748ZM81.2803 22.5973H87.7975L84.5685 12.6733H84.5093L81.2803 22.5973Z" fill="#2A2A2A"/>
<path d="M59.9203 30.4476V9.5332H73.3103V13.1769H64.3047V18.0352H73.2214V21.6197H64.3047V26.8039H73.3103V30.4476H59.9203Z" fill="#2A2A2A"/>
<path d="M53.4073 30.4476L47.2751 21.7975H45.6162V30.4476H41.2319V9.5332H49.9709C53.3184 9.5332 55.4513 10.5997 56.3993 12.7029C56.7548 13.5028 56.9621 14.4804 56.9621 15.6061C56.9621 16.7022 56.7548 17.7686 56.3993 18.5685C55.629 20.3459 54.1775 21.3827 52.0149 21.679L58.4433 30.4476H53.4073ZM45.6162 12.9399V18.6277H48.7563C50.5634 18.6277 51.7187 18.1834 52.1927 17.2058C52.3704 16.791 52.4593 16.3467 52.4593 15.7246C52.4593 15.1617 52.3704 14.7174 52.2223 14.3619C51.7187 13.2954 50.5041 12.9399 48.7563 12.9399H45.6162Z" fill="#2A2A2A"/>
<path d="M19.9675 30.4476V9.5332H24.4407L33.6833 23.9007V9.5332H37.9492V30.4476H33.4464L24.2334 16.1097V30.4476H19.9675Z" fill="#2A2A2A"/>
<path d="M8.47241 30.9808C2.60689 30.9808 0 28.5517 0 23.249V9.5332H4.3547V22.9232C4.3547 25.7374 5.62852 27.1594 8.47241 27.1594C11.3459 27.1594 12.6197 25.7374 12.6197 22.9232V9.5332H17.0041V23.249C17.0041 28.5517 14.3675 30.9808 8.47241 30.9808Z" fill="#2A2A2A"/>
<path d="M126.218 17.705L128.546 5.5148C129.32 1.55291 133.964 2.70981 133.458 5.95995L131.297 18.2182M126.218 17.705C124.982 17.8347 123.874 18.1277 123.106 18.5105C122.476 18.824 121.998 19.243 121.668 19.7124M126.218 17.705V15.6302C126.375 11.8368 120.93 11.9261 121.221 15.6302M126.218 17.705C127.852 17.5335 129.709 17.6478 131.297 18.2182M121.221 15.6302C120.913 11.705 115.347 12.6885 116.052 16.1248M121.221 15.6302L121.668 19.7124M116.052 16.1248C116.052 16.1248 114.628 9.13202 114.468 8.56516C113.608 5.51611 109.537 6.37287 110.043 9.52272L112.546 26.0531C113.709 31.5716 117.104 35.6538 123.368 35.6538C130.825 35.6538 134.115 31.5719 134.983 24.2249C135.378 20.8783 133.628 19.0561 131.297 18.2182M116.052 16.1248L116.984 20.9961C117.404 23.328 120.142 23.7612 121.275 22.3305M130.855 24.2249H128.004M124.744 30.7556C124.87 28.5787 125.698 24.2249 128.004 24.2249M128.004 24.2249H125.153C123.106 24.2249 121.711 23.5117 121.275 22.3305M121.668 19.7124C121.094 20.5288 120.968 21.4979 121.275 22.3305" stroke="#1E1E1E" stroke-width="6" stroke-linecap="round" stroke-linejoin="round"/>
<path d="M112.547 26.0534C113.71 31.5719 117.105 35.6541 123.368 35.6541C130.826 35.6541 134.116 31.5722 134.983 24.2251C135.378 20.8785 133.629 19.0563 131.297 18.2184C129.71 17.6481 127.853 17.5338 126.219 17.7052V15.6304C126.376 11.837 120.931 11.9263 121.221 15.6304C120.913 11.7086 115.357 12.687 116.05 16.1161C115.994 15.8372 114.625 9.12049 114.468 8.56541C113.609 5.51636 109.538 6.37312 110.044 9.52296L112.547 26.0534Z" fill="white"/>
<path d="M126.219 17.7052L128.546 5.51505C129.32 1.55315 133.964 2.71005 133.459 5.96019L131.297 18.2184M126.219 17.7052V15.6304C126.376 11.837 120.931 11.9263 121.221 15.6304C120.913 11.7086 115.357 12.687 116.05 16.1161M126.219 17.7052C127.853 17.5338 129.71 17.6481 131.297 18.2184M131.297 18.2184C133.629 19.0563 135.378 20.8785 134.983 24.2251C134.116 31.5722 130.826 35.6541 123.368 35.6541C117.105 35.6541 113.71 31.5719 112.547 26.0534L110.044 9.52296C109.538 6.37312 113.609 5.51636 114.468 8.56541C114.625 9.12049 115.994 15.8372 116.05 16.1161M116.05 16.1161C116.052 16.122 116.052 16.125 116.052 16.125C116.052 16.1221 116.051 16.1191 116.05 16.1161Z" stroke="white" stroke-width="5.2" stroke-linecap="round" stroke-linejoin="round"/>
<path d="M126.218 17.705L128.546 5.5148C129.32 1.55291 133.964 2.70981 133.458 5.95995L131.297 18.2182M126.218 17.705C124.982 17.8347 123.874 18.1277 123.106 18.5105C122.476 18.824 121.998 19.243 121.668 19.7124M126.218 17.705V15.6302C126.375 11.8368 120.93 11.9261 121.221 15.6302M126.218 17.705C127.852 17.5335 129.709 17.6478 131.297 18.2182M121.221 15.6302C120.913 11.705 115.347 12.6885 116.052 16.1248M121.221 15.6302L121.668 19.7124M116.052 16.1248C116.052 16.1248 114.628 9.13202 114.468 8.56517C113.608 5.51611 109.537 6.37287 110.043 9.52272L112.546 26.0531C113.709 31.5716 117.104 35.6538 123.368 35.6538C130.825 35.6538 134.115 31.5719 134.983 24.2249C135.378 20.8783 133.628 19.0561 131.297 18.2182M116.052 16.1248L116.984 20.9961C117.404 23.328 120.142 23.7612 121.275 22.3305M130.855 24.2249H128.004M124.744 30.7556C124.87 28.5787 125.698 24.2249 128.004 24.2249M128.004 24.2249H125.153C123.106 24.2249 121.711 23.5117 121.275 22.3305M121.668 19.7124C121.094 20.5288 120.968 21.4979 121.275 22.3305" stroke="#2A2A2A" stroke-width="2" stroke-linecap="round" stroke-linejoin="round"/>
</svg>
